<?xml version="1.0" encoding="UTF-8" standalone="no"?>
<!-- Created with Inkscape (http://www.inkscape.org/) -->

<svg
   width="190mm"
   height="190mm"
   viewBox="0 0 190 189.99999"
   version="1.1"
   id="svg1"
   xml:space="preserve"
   inkscape:version="1.3 (0e150ed6c4, 2023-07-21)"
   sodipodi:docname="logo.svg"
   inkscape:export-filename="QCR Logo Draft 2.png"
   inkscape:export-xdpi="96"
   inkscape:export-ydpi="96"
   xmlns:inkscape="http://www.inkscape.org/namespaces/inkscape"
   xmlns:sodipodi="http://sodipodi.sourceforge.net/DTD/sodipodi-0.dtd"
   xmlns="http://www.w3.org/2000/svg"
   xmlns:svg="http://www.w3.org/2000/svg"><sodipodi:namedview
     id="namedview1"
     pagecolor="#ffffff"
     bordercolor="#000000"
     borderopacity="0.25"
     inkscape:showpageshadow="2"
     inkscape:pageopacity="0.0"
     inkscape:pagecheckerboard="0"
     inkscape:deskcolor="#d1d1d1"
     inkscape:document-units="mm"
     inkscape:zoom="0.26173517"
     inkscape:cx="-397.34821"
     inkscape:cy="571.18806"
     inkscape:window-width="1920"
     inkscape:window-height="1009"
     inkscape:window-x="-8"
     inkscape:window-y="-8"
     inkscape:window-maximized="1"
     inkscape:current-layer="layer1"
     inkscape:export-bgcolor="#ffffff00" /><defs
     id="defs1"><rect
       x="83.749962"
       y="175.60477"
       width="799.67706"
       height="786.16901"
       id="rect11" /><rect
       x="71.637299"
       y="202.49477"
       width="276.04239"
       height="251.20813"
       id="rect10" /><rect
       x="119.3955"
       y="247.38748"
       width="403.07922"
       height="348.63486"
       id="rect2" /><rect
       x="160.7459"
       y="144.53622"
       width="452.51996"
       height="163.44751"
       id="rect16" /></defs><g
     inkscape:label="Main Logo"
     inkscape:groupmode="layer"
     id="layer1"
     style="display:inline"
     transform="translate(6.9985498,-107.80591)"><text
       xml:space="preserve"
       transform="matrix(0.35711542,0,0,0.35711542,-19.451011,18.137262)"
       id="text1"
       style="font-size:493.333px;font-family:'UTM ThuPhap Thien An';-inkscape-font-specification:'UTM ThuPhap Thien An';white-space:pre;shape-inside:url(#rect11);display:inline;fill:#c70f2e;stroke:#c70f2e;stroke-width:0.755906;stroke-dasharray:none;paint-order:stroke fill markers"
       inkscape:label="C -- UTM ThuPhap Thien An"><tspan
         x="83.75"
         y="730.6051"
         id="tspan2">C</tspan></text><g
       id="g33"
       inkscape:label="Ohio River"
       style="display:inline;opacity:1"
       transform="matrix(1.2086684,0,0,1.2086684,-34.855524,28.574265)"><path
         sodipodi:nodetypes="cccsscccccscc"
         inkscape:connector-curvature="0"
         id="path5705"
         d="m 67.542117,131.87248 c -10.611366,39.89957 -7.503868,35.66415 -25.785511,60.2059 -2.947233,7.47309 6.744201,13.89728 11.488976,11.0411 6.566578,-4.39713 13.981885,-9.46784 18.609082,-15.16386 8.401658,-10.34229 46.981366,-39.09087 73.078036,-47.15273 5.2555,-1.62355 10.15436,-1.39014 14.95126,-2.4269 3.60539,-1.02491 -0.0172,-6.38255 -1.99677,-8.41052 -6.67432,-7.03311 -18.42948,-11.19409 -22.27965,-8.42166 -1.68929,0.83538 0.82018,12.52887 -1.2288,13.62674 -19.80311,9.69292 -56.516188,34.7103 -73.202004,47.52052 -0.624516,0.29123 0.57056,-2.25339 0.982652,-3.0784 3.665924,-7.33904 7.654195,-27.934 9.657658,-48.88938 0.189602,-4.70849 -3.575008,-3.07066 -4.274929,1.14919 z"
         style="display:inline;fill:#002673;fill-opacity:1;fill-rule:evenodd;stroke:none;stroke-width:0.42498px;stroke-linecap:butt;stroke-linejoin:miter;stroke-opacity:1"
         inkscape:label="ノ"
         transform="matrix(1.0059464,0,0,1.0059464,-0.24504462,-0.71758649)" /><path
         sodipodi:nodetypes="cccc"
         inkscape:connector-curvature="0"
         id="path5703"
         d="m 51.734357,130.25354 c -2.632393,3.40946 9.106686,12.5122 17.711548,15.25325 2.780694,1.03653 11.402224,-7.95304 8.03427,-10.01137 -9.260758,-4.79646 -23.874785,-7.77062 -25.745818,-5.24188 z"
         style="display:inline;fill:#002673;fill-opacity:1;fill-rule:evenodd;stroke:none;stroke-width:4.2498;stroke-linecap:round;stroke-linejoin:round;stroke-miterlimit:4;stroke-dasharray:none;stroke-opacity:1"
         inkscape:label="点"
         transform="matrix(1.0059464,0,0,1.0059464,-0.24504462,-0.71758649)" /></g><g
       id="g5"
       inkscape:label="Twin Towers"
       style="display:inline;opacity:1"
       transform="matrix(1.2086684,0,0,1.2086684,-36.077342,29.185176)"><path
         id="path74"
         style="color:#000000;display:inline;opacity:1;fill:#000000;stroke-width:0.123304;stroke-linecap:round;-inkscape-stroke:none;paint-order:stroke fill markers"
         d="m 121.02885,171.79438 -0.12242,0.049 -0.52997,0.21213 h 1.96215 l -1.1153,0.44642 h -4.83484 l -0.1554,0.0622 -0.69753,0.2792 h -0.96015 l -0.1554,0.0622 -0.62917,0.25184 h -0.67593 l -0.1554,0.0622 -1.0386,0.41572 h -0.88935 l -0.1554,0.0622 -2.35929,0.94435 h -1.15135 l -0.18088,0.0724 -24.424556,9.77638 h 17.530716 l 24.60531,-9.84873 h -1.15135 l 2.51459,-1.00651 h -0.88884 l 1.19393,-0.47789 h -0.67593 l 0.78447,-0.314 h -0.96015 l 0.85283,-0.34136 h -4.83536 l 1.76759,-0.70751 z"
         inkscape:label="Carew Tower Shadow" /><path
         id="path68"
         style="color:#000000;display:inline;opacity:1;fill:#000000;stroke-linecap:round;-inkscape-stroke:none;paint-order:stroke fill markers"
         d="m 101.4908,62.32709 v 0.906175 3.926759 h 6.97202 v 8.263454 H 91.283393 v 1.150698 5.168075 h -3.411648 v 1.150698 4.661768 h -2.401742 v 1.150699 7.695296 h -3.16009 v 1.150699 17.480549 h -4.09104 v 1.33913 180.96748 H 140.50992 V 115.03196 h -4.09104 V 96.400712 h -3.15825 v -8.845995 h -2.40175 v -5.812466 h -3.41164 V 75.423478 H 110.26597 V 62.32709 Z"
         inkscape:label="Carew Tower"
         transform="matrix(0.28143229,0,0,0.35926998,60.746747,77.6658)" /><path
         id="path73"
         style="color:#000000;display:inline;opacity:1;fill:#000000;stroke-width:0.115392;stroke-linecap:round;-inkscape-stroke:none;paint-order:stroke fill markers"
         d="m 166.88377,182.94731 c -0.97687,0 -2.04615,0.055 -3.10122,0.14803 -1.05507,0.093 -2.11225,0.22412 -3.13512,0.38403 -1.84063,0.28776 -3.57074,0.66974 -4.8702,1.09403 h -0.70331 l -0.12007,0.0434 -1.36315,0.49227 h -1.4578 l -0.36623,0.13226 -42.25423,15.25921 h 17.53071 l 42.62047,-15.39147 h -1.45779 l 1.48322,-0.53563 h -0.70332 c 1.05033,-0.42429 1.43627,-0.80627 1.18929,-1.09403 -0.13725,-0.15991 -0.46827,-0.29103 -1.0083,-0.38403 -0.54004,-0.093 -1.30608,-0.14803 -2.28295,-0.14803 z m -0.25778,0.0931 c 0.74874,0 1.36082,0.0413 1.83323,0.1227 0.47241,0.0814 0.78943,0.20258 0.91975,0.35442 0.0724,0.0844 0.0851,0.17845 0.0412,0.27998 -0.0292,-0.0298 -0.065,-0.0587 -0.11109,-0.0864 -0.41888,-0.25168 -1.55426,-0.41744 -3.38435,-0.41744 -1.83009,0 -3.88193,0.16576 -5.69468,0.41744 -0.20051,0.0278 -0.39841,0.057 -0.59373,0.0869 0.51917,-0.10173 1.05406,-0.19598 1.59483,-0.28052 0.97125,-0.15184 1.95964,-0.27307 2.8826,-0.35442 0.92295,-0.0813 1.7635,-0.1227 2.51224,-0.1227 z m -0.95948,0.3465 c 1.45679,0 2.46588,0.13478 2.85562,0.36895 0.18082,0.10864 0.21727,0.23805 0.10555,0.38177 -0.0641,-0.0546 -0.16878,-0.10568 -0.31391,-0.15238 -0.5694,-0.18322 -1.76846,-0.30104 -3.47053,-0.30104 -1.70207,0 -3.55311,0.11782 -5.13721,0.30104 -0.40301,0.0466 -0.78982,0.0975 -1.15594,0.15207 0.68384,-0.1436 1.43655,-0.2729 2.21851,-0.38146 1.6866,-0.23417 3.44113,-0.36895 4.89791,-0.36895 z m -1.08148,0.39055 c 1.42046,0 2.4527,0.0975 2.96541,0.26249 0.30972,0.0997 0.41168,0.2241 0.28914,0.36344 -0.46239,-0.19083 -1.98287,-0.31844 -4.10601,-0.31844 -2.12355,0 -4.35079,0.12763 -5.86982,0.31852 0.64922,-0.13938 1.44081,-0.26384 2.30264,-0.36352 1.42637,-0.16497 2.99818,-0.26249 4.41864,-0.26249 z m -1.10967,0.40073 c 2.31985,0 3.76768,0.16908 3.711,0.39522 h -9.61027 c 1.19571,-0.22614 3.57942,-0.39522 5.89927,-0.39522 z"
         inkscape:label="Great American Tower Shadow" /><path
         id="path56"
         style="color:#000000;display:inline;opacity:1;fill:#000000;stroke-linecap:round;-inkscape-stroke:none;paint-order:stroke fill markers"
         d="m 105.63031,24.70651 c -3.28281,0 -6.364044,1.22991 -9.044253,3.308237 -2.680209,2.078327 -5.01276,5.0086 -6.962059,8.582313 -3.507755,6.430887 -5.767182,14.967618 -6.185795,24.449694 h -2.363522 v 0.969027 11.001407 H 76.175712 V 75.972893 416.98872 H 135.08838 V 73.017188 h -4.89897 V 61.046754 h -2.36353 c -0.41861,-9.482076 -2.67629,-18.018807 -6.18405,-24.449694 -1.9493,-3.573713 -4.28186,-6.503986 -6.96206,-8.582313 -2.68021,-2.078327 -5.76665,-3.308237 -9.04946,-3.308237 z m 0,2.080456 c 2.51617,0 4.95784,0.924025 7.30243,2.742103 2.34459,1.818077 4.53803,4.527263 6.38898,7.920665 1.02872,1.885989 1.94658,3.988028 2.74384,6.256996 -0.37531,-0.665691 -0.76518,-1.312748 -1.17742,-1.931107 -3.74974,-5.624623 -9.10774,-9.329054 -15.25783,-9.329054 -6.15009,0 -11.502875,3.704431 -15.252624,9.329054 -0.414768,0.622151 -0.808724,1.273208 -1.186103,1.943264 0.797964,-2.273633 1.718494,-4.3798 2.749049,-6.269153 1.850946,-3.393402 4.044387,-6.102588 6.388978,-7.920665 2.34459,-1.818078 4.78453,-2.742103 7.3007,-2.742103 z m 0,7.743532 c 4.89558,0 9.54095,3.012191 13.02976,8.245411 1.61867,2.428015 2.9454,5.320101 3.90737,8.531951 -0.72391,-1.22112 -1.55066,-2.361869 -2.47293,-3.405486 -3.61846,-4.094574 -8.74432,-6.727617 -14.4642,-6.727617 -5.719885,0 -10.844008,2.633043 -14.462468,6.727617 -0.920576,1.041704 -1.746493,2.179954 -2.469455,3.39854 0.96181,-3.209101 2.288109,-6.098724 3.905629,-8.525005 3.488814,-5.23322 8.130704,-8.245411 13.026294,-8.245411 z m 0,8.728188 c 4.7735,0 9.14989,2.179379 12.40806,5.866259 1.9682,2.227174 3.46884,5.008175 4.35367,8.122112 -3.32965,-4.2646 -9.62684,-7.116616 -16.76173,-7.116616 -7.136276,0 -13.433286,2.852381 -16.761736,7.118353 0.884754,-3.114762 2.386766,-5.896171 4.355411,-8.123849 3.258173,-3.68688 7.632815,-5.866259 12.406325,-5.866259 z m 0,8.955683 c 7.79594,0 14.23484,3.778596 16.14871,8.832385 H 89.483333 c 1.913866,-5.053789 8.35103,-8.832385 16.146977,-8.832385 z"
         inkscape:label="Great American Tower"
         transform="matrix(0.29757121,0,0,0.29757121,86.844737,76.416663)" /></g></g></svg>
